<svg height="512" viewBox="0 0 512 512" width="512" xmlns="http://www.w3.org/2000/svg"><path d="m0 0h512v512h-512z"/><path d="m124.812 388.907a60.718 60.718 0 0 0 16.564 11.588l-34.096 34.575a48.756 48.756 0 0 0 -28.35-28.006l34.16-34.576a61.093 61.093 0 0 0 11.722 16.42zm209.598-276.44c-32.754 33.14-57.813 79.127-103.008 124.853-9.13 9.245-40.292 37.355-58.303 53.555l49.223 48.64c15.98-18.24 43.727-49.744 52.858-58.978 45.154-45.726 90.828-71.39 123.57-104.477 53.933-54.575 82.25-147.568 82.25-147.568s-92.67 29.4-146.59 83.976zm-250.754 318.127a30.92 30.92 0 1 0 .26 43.727 30.817 30.817 0 0 0 -.26-43.727zm91.13-40.603c11.16 0 20.822-2.81 24.497-6.56l20.885-21.103-69.88-69.047-20.823 21.135c-7.964 8.068-11.233 43.06 7.85 61.905 10.12 10.026 24.79 13.66 37.47 13.66z" fill="#fff"/></svg>