<svg height="512" viewBox="0 0 512 512" width="512" xmlns="http://www.w3.org/2000/svg"><path d="m0 0h512v512h-512z"/><path d="m255.78 21c-127.682 0-232.31 104.628-232.31 232.313s104.627 230.78 232.31 230.78c127.685 0 230.782-103.095 230.782-230.78s-103.096-232.313-230.78-232.313zm-1.06 82 117.374 117.97-23.938 25.093-65.406-37.938v172.47c79.295-13.13 139.78-81.987 139.78-165 0-39.265-13.54-75.368-36.186-103.907 37.702 35.365 61.22 85.81 61.22 141.625-.002 106.395-85.385 191.78-191.783 191.78s-193.31-85.385-193.31-191.78c0-55.123 23.342-105.018 60.624-140.313-22.028 28.33-35.156 63.928-35.156 102.594 0 82.46 59.645 150.973 138.156 164.75v-168.72l-62.5 35.626-25.094-26.28z" fill="#fff" transform="translate(2 -13)"/></svg>