<svg height="512" viewBox="0 0 512 512" width="512" xmlns="http://www.w3.org/2000/svg"><path d="m0 0h512v512h-512z" fill="none"/><path d="m164.672 15.316c-4.24-.02-8.52-.008-12.848.032 356.973 34.267 149.668 296.606-133.02 225.675v29.272c208.715 52.028 406.9-83.077 335.225-186.316 74.252 54.5 10.927 228.767-217.44 261.272 80.052-17.795 151.75-58.013 188.793-112.78v-.003c-76.777 75.27-199.896 99.73-306.61 83.514v38.547l.03.003v29.983c103.604 17.95 230.47-10.83 317.05-98.192-64.335 91.95-198.984 149.52-317.05 142.64v62.942c379.606-.122 571.271-257.472 430.544-393.905 90.898 155.644-119.865 338.862-308.12 339.258 251.694-37.98 382.014-320.968 181.306-403.906-43.685-11.26-96.104-17.76-157.86-18.036z" fill="#48baff" stroke="#f2f9ff" stroke-width="16"/></svg>