<svg height="512" viewBox="0 0 512 512" width="512" xmlns="http://www.w3.org/2000/svg"><path d="m0 0h512v512h-512z" fill="none"/><path d="m19.5 12.28c88.718 14.188 164.126 68.854 216.78 159.314-44.542-44.537-90.157-83.254-141.654-109.844 32.85 23.08 62.377 54.866 90.844 94.656-51.233-51.223-103.514-93.65-167.283-115.126v35.314c60.134 16.64 118.398 62.562 163.968 129.312l-.125.063 22.19 38.405 157.936-91.188-22.187-38.406-.064.032c-38.38-69.37-83.042-95.124-106.72-102.53h-42.715c62.75 22.53 105.37 69.704 133.78 142.28-50.118-70.19-122.52-123.542-202.656-142.28h-102.094zm153.97 40.47c52.194 21.552 97.93 66.563 110.843 121.594zm175.03 129.906-111.97 64.656 84.72 146.688 111.97-64.656zm72.97 33.563-24 13.843 19.78 34.28 24-13.874-19.78-34.25zm-168.345 97.186-169.655 97.939 19.81 34.312 169.626-97.97-19.78-34.28zm212.405 18.815-157.936 91.186 22.22 38.47 157.936-91.188-22.22-38.47zm-402.81 80.59-35.94 20.75 28.907 50.063 35.938-20.75-28.906-50.063z" fill="#c9c9c9" stroke="#000" stroke-width="16"/></svg>