<svg height="512" viewBox="0 0 512 512" width="512" xmlns="http://www.w3.org/2000/svg"><path d="m0 0h512v512h-512z" fill="none"/><path d="m308.375 15.094-65.438 21.436-14.156 67.376 38.814 34.78c-12.68-1.094-25.17-.08-37.063 2.783l12.157 37.093c-6.177 1.23-12.12 3.2-17.75 5.843l-12.156-37.094c-11.5 4.83-22.173 11.465-31.56 19.657l10.714-50.968-51.25-45.938-65.437 21.408-14.156 67.374 51.25 45.937 49.594-16.218c-6.804 9.87-12.145 20.955-15.688 32.97l38.25 8.062c-.99 2.92-1.85 5.905-2.5 9-.652 3.102-1.105 6.2-1.375 9.28l-38.25-8.06c-1.646 12.762-1.132 25.392 1.28 37.467l-39.155-35.125-65.438 21.438-14.156 67.344 51.25 45.968 65.438-21.406 10.844-51.656c5.296 11.288 12.385 21.69 20.968 30.75l26.064-29.095c4.08 4.677 8.726 8.89 13.874 12.5l-26.03 29.063c9.615 7.326 20.49 13.246 32.374 17.343l-49.657 16.25-14.155 67.375 51.25 45.97 65.438-21.438 14.156-67.343-38.845-34.845c12.66 1.094 25.125.073 37-2.78l-12.125-37.035c6.182-1.218 12.147-3.18 17.78-5.812l12.126 37.03c11.548-4.842 22.237-11.517 31.656-19.75l-10.75 51.064 51.282 45.937 65.406-21.405 14.156-67.375-51.25-45.938-49.72 16.282c6.843-9.905 12.23-21.002 15.783-33.063l-38.126-8.03c.99-2.92 1.85-5.938 2.5-9.03.65-3.1 1.074-6.175 1.344-9.25l38.125 8.03c1.64-12.78 1.107-25.415-1.313-37.5l39.28 35.188 65.411-21.438 14.187-67.344-51.28-45.97-65.408 21.408-10.875 51.687c-5.302-11.317-12.418-21.733-21.03-30.81l-26 29.03c-4.098-4.682-8.77-8.892-13.938-12.5l26.03-29.03c-9.6-7.307-20.46-13.188-32.312-17.282l49.657-16.25 14.155-67.375-51.25-45.97zm-64 189.375 49.906 13.374 13.376 49.906-36.53 36.53-49.907-13.374-13.377-49.905 36.53-36.53z" fill="#48baff" stroke="#4a90e2" stroke-width="16"/></svg>