<svg height="512" viewBox="0 0 512 512" width="512" xmlns="http://www.w3.org/2000/svg"><path d="m0 0h512v512h-512z" fill="none"/><path d="m310.764 27.086c35.65 52.304 28.718 138.494 1.23 202.857.814-37.525-4.488-79.686-18.12-124.634 9.56 106.27-74.502 226.382-113.556 176.323-18.965-24.314-25.796-96.042 7.48-148.52-20.36 12.828-36.114 34.506-46.052 60.358-52.546 100.345-14.706 218.35 106.572 218.35 154.426 0 249.604-250.51 62.446-384.732zm-85.094 105.687c-11.55 1.477-24.57 13.962-33.502 34.973-14.002 32.94-13.464 74.536.64 92.914 10.576 13.785 25.695 10.895 38.678-5.465l.004-.004c4.328-5.45 8.49-12.35 11.99-20.588.11-.262.002-.618.112-.88-10.898 12.023-23.323 14.096-32.006 2.782-12.374-16.126-12.36-52.928-.074-81.832 4.055-9.54 8.972-16.68 14.158-21.9zm141.492 80.635c-11.895 181.347-175.84 187.74-203.445 106.76h.002c51.202 34.305 111.037 8.255 128.913-60.43l6.043 51.364c31.064-29.207 49.024-50.36 68.486-97.694zm-267.44 150.528c-50.152 13.627-82.547 33.814-82.547 56.204 0 41.018 106.522 74.352 237.695 74.352 131.172 0 237.696-33.334 237.696-74.35 0-22.312-32.12-42.58-81.964-56.206 17.23 8.88 27.517 19.25 27.517 30.445 0 32.13-82.312 58.546-183.25 58.546-100.936 0-182.66-26.418-182.66-58.545 0-11.253 10.11-21.536 27.517-30.444h-.004z" fill="#d0021b" stroke="#f5a623" stroke-width="16"/></svg>