<svg height="512" viewBox="0 0 512 512" width="512" xmlns="http://www.w3.org/2000/svg"><path d="m0 0h512v512h-512z" fill="none"/><path d="m255.594 19.32c-19.037.077-37.535 2.4-55.256 6.703l29.64 62.618c12.023-2.404 24.458-3.673 37.19-3.673 3.104 0 6.19.08 9.258.228zm47.213 4.502 13.277 67.563c80.478 21.548 139.744 94.97 139.744 182.242 0 104.193-84.466 188.66-188.66 188.66-86.638 0-159.628-58.404-181.768-137.986l-60.023-15.71c23.783 105.777 118.173 184.677 231.19 184.677 130.99 0 236.98-105.99 236.98-236.98 0-115.16-81.928-210.986-190.74-232.466zm-148.67 18.668c-19.214 9.21-36.99 20.936-52.9 34.748l44.482 52.03c13.483-11.357 28.58-20.858 44.897-28.112l-36.48-58.666zm-85.247 69.02c-12.055 15.61-22.203 32.762-30.1 51.12l54.462 37.765c6.46-15.322 14.888-29.61 24.963-42.55zm209.737 52.97c-4.208 0-8.368.204-12.475.59l32.12 67.866c9.445.593 18.468 2.732 26.822 6.17l-22.934-72.53c-7.636-1.377-15.5-2.097-23.533-2.097zm-43.957 7.52c-13.004 4.603-25.067 11.19-35.83 19.398l47.36 55.393c8.293-5.49 17.6-9.572 27.593-11.873zm98.055 4.066 15.125 76.973c14.87 12.698 25.3 30.44 28.62 50.585 12.203 6.997 22.144 17.516 28.41 30.164 3.545-11.917 5.452-24.54 5.452-37.606 0-53.457-31.85-99.475-77.607-120.116zm-308.22 31.924c-3.22 15.592-4.92 31.743-4.92 48.297 0 1.402.03 2.8.054 4.196l59.121 22.977c-.167-3.257-.254-6.535-.254-9.833 0-11.836 1.1-23.413 3.185-34.645l-57.187-30.99zm152.192 4.785c-7.894 9.636-14.452 20.41-19.383 32.04l57.448 39.837c3.517-8.36 8.352-16.023 14.22-22.763l-52.285-49.113zm-28.11 62.453c-1.09 6.825-1.665 13.822-1.665 20.954 0 4.746.256 9.433.746 14.05l62.19 24.164c-1.11-5.467-1.692-11.125-1.692-16.92 0-3.268.19-6.49.55-9.664l-60.126-32.582zm192.854 37.745c-28.866 0-52.07 23.2-52.07 52.07 0 28.868 23.204 52.07 52.07 52.07 28.87 0 52.072-23.202 52.072-52.07 0-28.87-23.203-52.07-52.07-52.07zm-186.091 29.637c18.774 49.828 66.883 85.28 123.28 85.28 8.855 0 17.505-.88 25.87-2.548-9.712-5.98-17.88-14.236-23.756-24.018-26.384-3.79-48.834-19.743-61.506-41.992l-63.888-16.723z" fill="#9013fe" stroke="#fc88fc" stroke-width="16"/></svg>